PathFileType	4	(X/Y/Z)	 0.06m3min.trc
DataRate	CameraRate	NumFrames	NumMarkers	Units	OrigDataRate	OrigDataStartFrame	OrigNumFrames
200	200	9	43	m	200	876	1000
Frame#	Time	C7			LSH			RSH			MAN			RASI			LASI			HIPR			HIPL			RPSI			LPSI			COX			RTHI1			RTHI2			RTHI3			RTHI4			RLKN			RMKN			RSHA1			RSHA2			RSHA3			RSHA4			RLMAL			RMMAL			RHEEL			RMET5			RMET1			RTOE			LTHI1			LTHI2			LTHI3			LTHI4			LLKN			LMKN			LSHA1			LSHA2			LSHA3			LSHA4			LLMAL			LMMAL			LHEEL			LMET5			LMET1			LTOE			
		X1	Y1	Z1	X2	Y2	Z2	X3	Y3	Z3	X4	Y4	Z4	X5	Y5	Z5	X6	Y6	Z6	X7	Y7	Z7	X8	Y8	Z8	X9	Y9	Z9	X10	Y10	Z10	X11	Y11	Z11	X12	Y12	Z12	X13	Y13	Z13	X14	Y14	Z14	X15	Y15	Z15	X16	Y16	Z16	X17	Y17	Z17	X18	Y18	Z18	X19	Y19	Z19	X20	Y20	Z20	X21	Y21	Z21	X22	Y22	Z22	X23	Y23	Z23	X24	Y24	Z24	X25	Y25	Z25	X26	Y26	Z26	X27	Y27	Z27	X28	Y28	Z28	X29	Y29	Z29	X30	Y30	Z30	X31	Y31	Z31	X32	Y32	Z32	X33	Y33	Z33	X34	Y34	Z34	X35	Y35	Z35	X36	Y36	Z36	X37	Y37	Z37	X38	Y38	Z38	X39	Y39	Z39	X40	Y40	Z40	X41	Y41	Z41	X42	Y42	Z42	X43	Y43	Z43	
876	4.3800	-0.300131	1.419782	-0.523472	-0.216218	1.411565	-0.670890	-0.241738	1.404353	-0.369962	-0.179935	1.370037	-0.515834	-0.150534	0.946043	-0.404197	-0.153353	0.938609	-0.637882	-0.193761	1.015144	-0.381287	-0.184904	1.007925	-0.657783	-0.315438	0.989560	-0.484759	-0.315379	0.988638	-0.556044	-0.312457	0.995568	-0.519462	-0.278322	0.770303	-0.344458	-0.269672	0.711062	-0.337852	-0.206935	0.717944	-0.323564	-0.206688	0.779314	-0.329714	-0.255312	0.511005	-0.345319	-0.230406	0.491687	-0.465562	-0.331366	0.337259	-0.338974	-0.336844	0.294203	-0.347828	-0.276841	0.290155	-0.330990	-0.279493	0.330530	-0.325001	-0.320624	0.157221	-0.348890	-0.283688	0.160842	-0.419241	-0.363228	0.154587	-0.395701	-0.245970	0.054133	-0.327832	-0.200319	0.062971	-0.386728	-0.184223	0.053922	-0.379232	-0.272527	0.785390	-0.695911	-0.259455	0.725896	-0.705668	-0.194775	0.734307	-0.707422	-0.200298	0.793442	-0.699136	-0.268607	0.505548	-0.696455	-0.236808	0.497026	-0.577661	-0.346454	0.339872	-0.698688	-0.347089	0.300023	-0.694690	-0.289922	0.298911	-0.714258	-0.294066	0.341003	-0.720275	-0.323980	0.163189	-0.701557	-0.300618	0.164669	-0.627700	-0.374543	0.161618	-0.654208	-0.260266	0.055268	-0.712538	-0.218939	0.055616	-0.649245	-0.205505	0.047883	-0.655054	
877	4.3850	-0.300124	1.420871	-0.523342	-0.216363	1.412831	-0.670838	-0.241437	1.405512	-0.369837	-0.179903	1.371249	-0.515820	-0.150670	0.947297	-0.404262	-0.153457	0.939937	-0.637726	-0.193799	1.016561	-0.381378	-0.184889	1.009362	-0.657625	-0.315559	0.991161	-0.484767	-0.315468	0.990253	-0.556121	-0.312583	0.997146	-0.519501	-0.278036	0.771396	-0.344437	-0.269318	0.712185	-0.337769	-0.206514	0.719092	-0.323805	-0.206368	0.780489	-0.329921	-0.254591	0.511873	-0.345379	-0.230394	0.492570	-0.465644	-0.331039	0.338158	-0.338816	-0.336685	0.295166	-0.347714	-0.276588	0.290939	-0.331400	-0.279070	0.331303	-0.325243	-0.320739	0.158334	-0.349199	-0.283834	0.161765	-0.419616	-0.363396	0.155201	-0.396108	-0.245455	0.056495	-0.326956	-0.199822	0.064813	-0.385825	-0.183673	0.055918	-0.378156	-0.272339	0.786970	-0.695865	-0.259339	0.727484	-0.705731	-0.194637	0.735800	-0.707329	-0.200095	0.794927	-0.698938	-0.267886	0.506411	-0.696504	-0.236707	0.497498	-0.577739	-0.346193	0.340934	-0.698520	-0.346911	0.301116	-0.694307	-0.289790	0.299716	-0.713945	-0.293797	0.341804	-0.720128	-0.324002	0.164257	-0.701125	-0.300470	0.165673	-0.627258	-0.374535	0.162225	-0.653612	-0.259413	0.057407	-0.713062	-0.217862	0.057538	-0.649915	-0.204329	0.049999	-0.655797	
878	4.3900	-0.300071	1.421803	-0.523230	-0.216438	1.413788	-0.670871	-0.241095	1.406382	-0.369614	-0.179840	1.372217	-0.515810	-0.150850	0.948283	-0.404339	-0.153621	0.940982	-0.637610	-0.193893	1.017689	-0.381460	-0.184943	1.010501	-0.657513	-0.315749	0.992417	-0.484780	-0.315630	0.991514	-0.556177	-0.312767	0.998370	-0.519520	-0.277709	0.772204	-0.344400	-0.268867	0.713020	-0.337655	-0.205998	0.720020	-0.324046	-0.206014	0.781443	-0.330129	-0.253779	0.512509	-0.345422	-0.230153	0.493249	-0.465692	-0.330668	0.338887	-0.338724	-0.336509	0.295982	-0.347630	-0.276341	0.291540	-0.331832	-0.278625	0.331889	-0.325530	-0.320937	0.159271	-0.349529	-0.284119	0.162510	-0.420045	-0.363707	0.155669	-0.396512	-0.245156	0.058651	-0.326204	-0.199566	0.066419	-0.385042	-0.183364	0.057742	-0.377248	-0.272119	0.788150	-0.695847	-0.259125	0.728685	-0.705837	-0.194412	0.736992	-0.707297	-0.199871	0.796094	-0.698779	-0.266928	0.507007	-0.696591	-0.236410	0.497705	-0.577853	-0.345935	0.341914	-0.698408	-0.346888	0.302143	-0.694004	-0.289730	0.300302	-0.713547	-0.293488	0.342385	-0.719920	-0.324157	0.165129	-0.700627	-0.300404	0.166478	-0.626751	-0.374669	0.162658	-0.652935	-0.258708	0.059431	-0.713572	-0.216948	0.059331	-0.650566	-0.203322	0.051973	-0.656555	
879	4.3950	-0.299979	1.422576	-0.523129	-0.216444	1.414456	-0.670971	-0.240714	1.406984	-0.369320	-0.179737	1.372951	-0.515810	-0.151067	0.949003	-0.404434	-0.153838	0.941750	-0.637533	-0.194035	1.018525	-0.381538	-0.185060	1.011349	-0.657442	-0.315997	0.993338	-0.484794	-0.315853	0.992431	-0.556210	-0.313000	0.999266	-0.519524	-0.277339	0.772739	-0.344335	-0.268337	0.713591	-0.337513	-0.205399	0.720724	-0.324283	-0.205625	0.782170	-0.330333	-0.252902	0.512942	-0.345446	-0.229728	0.493737	-0.465708	-0.330253	0.339473	-0.338680	-0.336319	0.296668	-0.347582	-0.276090	0.291974	-0.332253	-0.278169	0.332292	-0.325833	-0.321224	0.160037	-0.349855	-0.284562	0.163087	-0.420511	-0.364174	0.155991	-0.396896	-0.245021	0.060592	-0.325607	-0.199538	0.067792	-0.384564	-0.183280	0.059288	-0.376653	-0.271861	0.788927	-0.695857	-0.258804	0.729497	-0.705984	-0.194091	0.737871	-0.707322	-0.199619	0.796941	-0.698665	-0.265786	0.507351	-0.696698	-0.235906	0.497705	-0.577984	-0.345656	0.342782	-0.698340	-0.346971	0.303068	-0.693800	-0.289693	0.300684	-0.713082	-0.293129	0.342769	-0.719647	-0.324394	0.165808	-0.700089	-0.300430	0.167075	-0.626198	-0.374912	0.162926	-0.652233	-0.258150	0.061284	-0.714016	-0.216208	0.060925	-0.651175	-0.202509	0.053743	-0.657277	
880	4.4000	-0.299845	1.423179	-0.523034	-0.216388	1.414845	-0.671119	-0.240302	1.407325	-0.368983	-0.179577	1.373456	-0.515824	-0.151320	0.949461	-0.404549	-0.154103	0.942250	-0.637489	-0.194223	1.019071	-0.381615	-0.185236	1.011914	-0.657406	-0.316291	0.993937	-0.484801	-0.316120	0.993023	-0.556219	-0.313269	0.999838	-0.519516	-0.276933	0.773012	-0.344233	-0.267741	0.713917	-0.337333	-0.204731	0.721216	-0.324514	-0.205205	0.782675	-0.330532	-0.251977	0.513180	-0.345452	-0.229151	0.494047	-0.465693	-0.329824	0.339925	-0.338668	-0.336139	0.297215	-0.347562	-0.275864	0.292236	-0.332656	-0.277716	0.332531	-0.326142	-0.321615	0.160656	-0.350153	-0.285166	0.163498	-0.421010	-0.364792	0.156184	-0.397246	-0.244967	0.062359	-0.325172	-0.199665	0.068999	-0.384245	-0.183337	0.060654	-0.376286	-0.271564	0.789299	-0.695900	-0.258374	0.729910	-0.706148	-0.193670	0.738443	-0.707399	-0.199345	0.797474	-0.698602	-0.264523	0.507460	-0.696812	-0.235199	0.497539	-0.578117	-0.345343	0.343500	-0.698303	-0.347098	0.303834	-0.693697	-0.289645	0.300870	-0.712583	-0.292716	0.342978	-0.719322	-0.324693	0.166298	-0.699525	-0.300549	0.167478	-0.625609	-0.375257	0.163039	-0.651540	-0.257747	0.062964	-0.714412	-0.215659	0.062284	-0.651698	-0.201869	0.055304	-0.657883	
881	4.4050	-0.299673	1.423585	-0.522938	-0.216267	1.414961	-0.671300	-0.239864	1.407414	-0.368622	-0.179393	1.373729	-0.515839	-0.151605	0.949662	-0.404684	-0.154407	0.942492	-0.637477	-0.194450	1.019328	-0.381693	-0.185465	1.012205	-0.657396	-0.316615	0.994218	-0.484800	-0.316422	0.993299	-0.556209	-0.313566	1.000105	-0.519500	-0.276502	0.773035	-0.344095	-0.267094	0.713990	-0.337134	-0.204009	0.721485	-0.324748	-0.204763	0.782954	-0.330725	-0.251002	0.513236	-0.345444	-0.228461	0.494185	-0.465648	-0.329423	0.340252	-0.338662	-0.336000	0.297624	-0.347578	-0.275691	0.292324	-0.333038	-0.277293	0.332595	-0.326422	-0.322090	0.161092	-0.350424	-0.285929	0.163743	-0.421533	-0.365545	0.156232	-0.397532	-0.244986	0.063882	-0.324891	-0.199951	0.069995	-0.384219	-0.183551	0.061778	-0.376230	-0.271238	0.789263	-0.695975	-0.257842	0.729939	-0.706321	-0.193166	0.738701	-0.707505	-0.199048	0.797695	-0.698591	-0.263194	0.507341	-0.696932	-0.234296	0.497247	-0.578245	-0.344994	0.344033	-0.698294	-0.347216	0.304397	-0.693680	-0.289559	0.300876	-0.712083	-0.292254	0.343013	-0.718966	-0.325034	0.166599	-0.698954	-0.300774	0.167689	-0.624993	-0.375673	0.162984	-0.650852	-0.257467	0.064399	-0.714707	-0.215276	0.063422	-0.652083	-0.201399	0.056587	-0.658362	
882	4.4100	-0.299461	1.423777	-0.522844	-0.216086	1.414814	-0.671499	-0.239399	1.407255	-0.368256	-0.179189	1.373739	-0.515841	-0.151920	0.949610	-0.404837	-0.154747	0.942483	-0.637493	-0.194716	1.019299	-0.381775	-0.185752	1.012228	-0.657409	-0.316956	0.994189	-0.484794	-0.316751	0.993273	-0.556181	-0.313890	1.000085	-0.519479	-0.276058	0.772815	-0.343926	-0.266412	0.713813	-0.336924	-0.203264	0.721534	-0.324971	-0.204308	0.783008	-0.330920	-0.249966	0.513099	-0.345422	-0.227698	0.494156	-0.465576	-0.329081	0.340467	-0.338656	-0.335929	0.297878	-0.347629	-0.275602	0.292232	-0.333404	-0.276928	0.332482	-0.326693	-0.322634	0.161330	-0.350681	-0.286836	0.163819	-0.422072	-0.366417	0.156125	-0.397747	-0.245033	0.065154	-0.324796	-0.200382	0.070744	-0.384433	-0.183877	0.062704	-0.376455	-0.270897	0.788837	-0.696082	-0.257224	0.729592	-0.706494	-0.192591	0.738655	-0.707625	-0.198738	0.797608	-0.698627	-0.261850	0.507010	-0.697050	-0.233213	0.496854	-0.578372	-0.344611	0.344346	-0.698300	-0.347299	0.304747	-0.693735	-0.289414	0.300705	-0.711608	-0.291758	0.342866	-0.718601	-0.325408	0.166721	-0.698394	-0.301104	0.167722	-0.624364	-0.376151	0.162768	-0.650196	-0.257301	0.065617	-0.714935	-0.215061	0.064317	-0.652339	-0.201110	0.057627	-0.658709	
883	4.4150	-0.299225	1.423739	-0.522743	-0.215854	1.414414	-0.671710	-0.238916	1.406851	-0.367893	-0.178992	1.373522	-0.515832	-0.152266	0.949308	-0.405006	-0.155126	0.942229	-0.637540	-0.195021	1.018992	-0.381863	-0.186095	1.011989	-0.657441	-0.317309	0.993862	-0.484785	-0.317104	0.992958	-0.556138	-0.314239	0.999789	-0.519453	-0.275611	0.772351	-0.343730	-0.265713	0.713399	-0.336711	-0.202509	0.721363	-0.325194	-0.203851	0.782838	-0.331122	-0.248863	0.512758	-0.345392	-0.226893	0.493949	-0.465483	-0.328809	0.340548	-0.338648	-0.335937	0.297982	-0.347710	-0.275596	0.291951	-0.333751	-0.276643	0.332184	-0.326953	-0.323257	0.161372	-0.350929	-0.287853	0.163724	-0.422616	-0.367382	0.155848	-0.397900	-0.245151	0.066140	-0.324922	-0.200931	0.071273	-0.384918	-0.184327	0.063333	-0.376958	-0.270553	0.788055	-0.696218	-0.256548	0.728888	-0.706648	-0.191964	0.738314	-0.707743	-0.198435	0.797228	-0.698705	-0.260519	0.506472	-0.697167	-0.231966	0.496373	-0.578508	-0.344207	0.344421	-0.698316	-0.347295	0.304848	-0.693808	-0.289213	0.300355	-0.711172	-0.291245	0.342540	-0.718250	-0.325812	0.166653	-0.697846	-0.301546	0.167571	-0.623736	-0.376684	0.162384	-0.649580	-0.257235	0.066567	-0.715044	-0.215000	0.064923	-0.652460	-0.200981	0.058398	-0.658899	
884	4.4200	-0.298967	1.423461	-0.522632	-0.215581	1.413760	-0.671929	-0.238415	1.406178	-0.367543	-0.178791	1.373057	-0.515815	-0.152641	0.948761	-0.405182	-0.155539	0.941740	-0.637610	-0.195362	1.018411	-0.381958	-0.186501	1.011493	-0.657489	-0.317675	0.993251	-0.484780	-0.317483	0.992369	-0.556085	-0.314612	0.999215	-0.519420	-0.275175	0.771641	-0.343517	-0.265008	0.712745	-0.336502	-0.201756	0.720968	-0.325425	-0.203405	0.782441	-0.331332	-0.247699	0.512202	-0.345359	-0.226054	0.493564	-0.465376	-0.328601	0.340450	-0.338658	-0.336025	0.297908	-0.347813	-0.275665	0.291477	-0.334071	-0.276439	0.331707	-0.327203	-0.323954	0.161208	-0.351179	-0.288941	0.163450	-0.423168	-0.368392	0.155414	-0.397978	-0.245344	0.066794	-0.325231	-0.201614	0.071539	-0.385553	-0.184865	0.063706	-0.377692	-0.270226	0.786927	-0.696383	-0.255834	0.727846	-0.706776	-0.191314	0.737691	-0.707842	-0.198163	0.796570	-0.698815	-0.259237	0.505741	-0.697282	-0.230589	0.495806	-0.578664	-0.343802	0.344249	-0.698340	-0.347234	0.304701	-0.693905	-0.288976	0.299834	-0.710783	-0.290736	0.342033	-0.717934	-0.326239	0.166394	-0.697321	-0.302069	0.167260	-0.623117	-0.377262	0.161849	-0.649018	-0.257279	0.067214	-0.715069	-0.215081	0.065266	-0.652422	-0.200993	0.058870	-0.658911	
